PathFileType	4	(X/Y/Z)	F:\MotionCapture\20160217\3\Generated_files\EMG_Fprce_test06-Dynamic.trc
DataRate	CameraRate	NumFrames	NumMarkers	Units	OrigDataRate	OrigDataStartFrame	OrigNumFrames
120.00	120.00	       4	39	mm	120.00	165	       657
Frame#	Time	Top.Head			Front.Head			Rear.Head			R.Shoulder			R.Offset			R.Elbow			R.Wrist			L.Shoulder			L.Elbow			L.Wrist			R.ASIS			L.ASIS			V.Sacral			R.Thigh			R.Knee			R.Shank			R.Ankle			R.Heel			R.Toe			L.Thigh			L.Knee			L.Shank			L.Ankle			L.Heel			L.Toe			R1			R2			R3			R4			R5			R6			R7			L1			L2			L3			L4			L5			L6			L7			V_Mid_ASIS			V_Pelvis_Origin			V_R.Hip_JC			V_L.Hip_JC			V_R.Knee_JC			V_L.Knee_JC			V_R.Ankle_JC			V_L.Ankle_JC			V_Mid_Hip			V_Mid_Shoulder			V_R.Hand			V_L.Hand			V_R.Toe_Offset_Static			V_L.Toe_Offset_Static			V_R.Toe_Offset			V_L.Toe_Offset			
		X1	Y1	Z1	X2	Y2	Z2	X3	Y3	Z3	X4	Y4	Z4	X5	Y5	Z5	X6	Y6	Z6	X7	Y7	Z7	X8	Y8	Z8	X9	Y9	Z9	X10	Y10	Z10	X11	Y11	Z11	X12	Y12	Z12	X13	Y13	Z13	X14	Y14	Z14	X15	Y15	Z15	X16	Y16	Z16	X17	Y17	Z17	X18	Y18	Z18	X19	Y19	Z19	X20	Y20	Z20	X21	Y21	Z21	X22	Y22	Z22	X23	Y23	Z23	X24	Y24	Z24	X25	Y25	Z25	X26	Y26	Z26	X27	Y27	Z27	X28	Y28	Z28	X29	Y29	Z29	X30	Y30	Z30	X31	Y31	Z31	X32	Y32	Z32	X33	Y33	Z33	X34	Y34	Z34	X35	Y35	Z35	X36	Y36	Z36	X37	Y37	Z37	X38	Y38	Z38	X39	Y39	Z39	

165	1.367	1881.22778	141.32590	1734.07654	1764.63000	143.25954	1657.11560	1985.25049	132.44667	1659.23010	1930.85413	334.55994	1423.97729	2061.13306	61.06431	1295.35120	2017.51538	426.86130	1108.64905	1947.59094	437.99927	854.93951	1897.55042	-73.26103	1432.66699	1940.65820	-190.77983	1118.55151	1828.39331	-177.86226	883.27875	1901.53418	271.23495	948.58307	1884.27087	-16.06743	943.55475	2114.08838	111.81783	966.74365	1865.41748	215.05095	580.74768	1927.29993	252.55760	471.43433	1943.17847	171.84319	239.57721	2005.23572	238.37100	74.12510	2071.86401	173.51225	45.36901	1864.07666	222.55920	48.08097	1793.41113	-8.50133	644.80554	1872.20618	-67.76198	475.75919	1935.68945	13.12983	350.11316	2181.31958	-12.39200	213.15689	2225.19092	55.47007	243.62975	2107.34717	-22.76564	93.94091	1818.14929	205.55537	47.91527	1856.21179	186.99121	52.15107	1952.78552	148.49948	61.14220	2025.90027	144.49387	45.42200	2042.76489	217.52701	45.26717	1968.76001	249.25543	39.97154	1902.89172	264.40756	41.54984	2076.66724	-7.56170	56.33751	2090.63696	11.01795	85.99003	2133.63354	65.37700	159.45905	2192.08960	79.72390	214.16225	2217.92944	12.81943	224.06386	2182.55957	-27.81085	161.94751	2143.19214	-43.64444	115.59429																																																	2069.79199	-32.76704	46.24666	
166	1.375	1871.16492	142.03671	1734.40039	1753.09692	143.93457	1657.60559	1975.12036	133.35135	1659.65942	1920.14685	335.05676	1424.42395	2051.42896	62.76570	1295.99890	2001.61084	428.87219	1108.06067	1924.56165	438.59427	856.49121	1888.50110	-72.27018	1433.06897	1936.80127	-190.65666	1120.34399	1830.15637	-181.39674	882.08569	1891.32800	272.44501	948.52197	1873.64417	-14.39196	945.19299	2104.27026	112.43324	967.19391	1861.02673	215.68491	579.49091	1924.72595	252.51103	470.99008	1942.29077	172.34972	238.92404	2005.17664	238.14404	74.24370	2072.40430	173.95947	45.85365	1864.09570	222.52367	47.90992	1777.35120	-6.35321	650.35895	1851.37817	-65.81580	478.90793	1911.86145	15.66841	351.95810	2151.98999	-9.01491	205.72903	2198.64160	59.69573	234.42125	2072.19922	-20.71637	91.23596	1818.23389	205.52412	47.61332	1856.36951	187.00755	51.87116	1952.65979	148.52196	60.78999	2025.61047	144.20634	45.60141	2044.34656	218.54283	46.02680	1968.94812	249.04831	40.17667	1902.92163	264.40457	41.51150	2039.04126	-6.18724	55.66275	2054.23413	13.02637	84.04152	2101.00293	67.96505	154.20671	2162.76001	82.37165	205.12070	2189.47534	15.78548	214.49733	2150.03174	-24.53881	154.78900	2108.48193	-41.68414	111.52956																																																	1731.73193	374.44330	770.17999	1006.36884	323.91489	434.90332	3060.02539	-235.99548	1685.54150	
167	1.383	1860.84839	143.26660	1734.44666	1743.24011	144.65756	1657.55688	1964.86682	134.35349	1659.85840	1908.94983	335.90430	1424.97607	2041.89612	64.57278	1296.45581	1986.00903	431.31183	1107.45667	1901.63550	438.85931	858.47192	1879.53247	-71.72455	1433.16199	1932.76135	-190.24866	1121.46179	1832.31262	-184.27159	881.23657	1881.63123	273.80310	947.92902	1863.35583	-12.11198	946.47870	2094.31665	112.71829	967.54041	1856.69775	215.95386	577.61676	1921.90002	252.65662	469.94922	1941.56445	172.22652	238.58774	2005.86633	238.48961	74.25665	2072.21069	173.69266	45.86511	1863.57446	223.20137	47.49432	1761.74231	-4.64886	655.37817	1831.39819	-64.33254	481.70920	1886.32434	17.82563	353.26495	2122.11499	-6.10388	197.36459	2169.22192	63.22146	222.31122	2035.12830	-19.19013	88.15044	1817.79736	205.81769	46.97041	1856.26709	186.83107	51.63720	1952.43506	148.40239	60.36676	2025.27893	143.97076	45.59858	2043.59753	217.86024	46.16317	1968.93604	248.89816	40.19847	1902.86865	264.49030	41.42283	2000.59363	-5.80737	55.08199	2016.40820	14.87211	81.85526	2067.95410	70.07718	148.54816	2132.58276	85.97480	196.31816	2160.07983	19.66734	204.54283	2117.47437	-22.04019	147.33438	2072.78442	-39.30261	106.54639																																																	1706.55029	375.50726	771.59979	956.88403	331.06894	436.91602	
168	1.392	1850.51245	143.65614	1734.57556	1732.77917	144.95317	1657.51001	1954.74304	135.34972	1659.93616	1898.13171	336.90012	1425.24878	2032.15686	65.82097	1296.40161	1970.41980	433.73459	1106.61682	1877.80005	439.03549	860.09924	1870.61047	-70.88905	1432.92078	1928.28503	-189.45155	1123.33630	1833.84509	-188.07460	879.92975	1872.09839	275.63464	947.18268	1854.04700	-10.03528	947.35223	2084.58154	112.93011	967.79547	1851.23120	216.21252	576.21802	1918.65955	253.22604	468.69260	1939.54980	172.23735	238.10396	2005.69031	238.33629	74.28168	2072.21606	173.30272	45.83997	1863.31140	223.29262	47.24093	1746.60181	-2.03205	660.32324	1812.42297	-62.54920	484.69791	1863.09875	20.75082	353.90671	2091.10864	-3.62429	188.53821	2139.64868	66.33878	210.14960	1996.75159	-17.95969	85.99369	1817.40112	205.62970	46.11541	1856.11548	186.57954	51.28202	1951.96997	148.30038	59.96918	2025.67175	144.07164	45.41050	2043.52515	217.54773	46.29264	1969.18872	248.59572	40.26513	1902.52612	264.31348	41.25764	1962.54517	-4.86416	54.35252	1979.94788	15.79220	79.79169	2034.85388	73.03922	142.49849	2101.39600	88.82053	185.94991	2131.49854	21.69481	193.09068	2083.75562	-19.29240	139.65723	2037.32605	-37.85460	102.49940																																																	1719.29602	76.21706	130.52910	909.29675	337.69308	438.84952	3037.71143	-234.08733	1686.14624	1681.82874	375.77246	773.87939	
